# Apple ModelIO OBJ File: ecoductbrug
mtllib ecoductbrug.mtl
g pCube1_initialShadingGroup
v -1.29104 3.30073 5.98188
v 1.29104 3.30073 5.98188
v 1.50301 3.73057 5.98188
v -1.50301 3.73057 5.98188
v -1.50301 3.73057 4.17883
v 1.50301 3.73057 4.17883
v 1.50301 3.73057 -4.17883
v -1.50301 3.73057 -4.17883
v -1.50301 3.73057 -6.08061
v 1.50301 3.73057 -6.08061
v 1.29104 3.30073 -6.08061
v -1.29104 3.30073 -6.08061
v -1.29104 3.30073 -4.17883
v 1.29104 3.30073 -4.17883
v 1.29104 3.30073 4.17883
v -1.29104 3.30073 4.17883
v 11.419 -5.54407 4.17883
v 11.419 -5.54407 -4.17883
v 13.9306 -4.48627 -4.17883
v 13.9306 -4.48627 4.17883
v -11.419 -5.54407 -4.17883
v -11.419 -5.54407 4.17883
v -13.9306 -4.48627 4.17883
v -13.9306 -4.48627 -4.17883
v 3.87851 2.81913 -4.17883
v 3.87851 2.81913 4.17883
v 4.47675 3.24897 -6.08061
v 3.87851 2.81913 -6.08061
v 4.47675 3.24897 4.17883
v 4.47675 3.24897 -4.17883
v 4.47675 3.24897 5.98188
v 3.87851 2.81913 5.98188
v -3.87851 2.81913 4.17883
v -3.87851 2.81913 -4.17883
v -4.47675 3.24897 5.98188
v -3.87851 2.81913 5.98188
v -4.47675 3.24897 -4.17883
v -4.47675 3.24897 4.17883
v -4.47675 3.24897 -6.08061
v -3.87851 2.81913 -6.08061
v 5.70837 1.7358 -4.17883
v 5.70837 1.7358 4.17883
v 6.8469 2.16564 -6.08061
v 5.70837 1.7358 -6.08061
v 6.8469 2.16564 4.17883
v 6.8469 2.16564 -4.17883
v 6.8469 2.16564 5.98188
v 5.70837 1.7358 5.98188
v -5.70837 1.7358 4.17883
v -5.70837 1.7358 -4.17883
v -6.8469 2.16564 5.98188
v -5.70837 1.7358 5.98188
v -6.8469 2.16564 -4.17883
v -6.8469 2.16564 4.17883
v -6.8469 2.16564 -6.08061
v -5.70837 1.7358 -6.08061
v 6.90917 -0.030951 -4.17883
v 6.90917 -0.030951 4.17883
v 6.90917 -0.030951 -6.08062
v 8.45094 0.770337 -6.08062
v 8.45094 0.770337 4.17883
v 8.45094 0.770337 -4.17883
v 6.90917 -0.030951 5.98188
v 8.45094 0.770337 5.98188
v -6.90917 -0.030951 4.17883
v -6.90917 -0.030951 -4.17883
v -6.90917 -0.030951 5.98188
v -8.45094 0.770337 5.98188
v -8.45094 0.770337 -4.17883
v -8.45094 0.770337 4.17883
v -6.90917 -0.030951 -6.08062
v -8.45094 0.770337 -6.08062
v 8.84763 -4.67649 -4.17883
v 8.84763 -4.67649 4.17883
v 8.84763 -4.67649 -6.08062
v 9.88286 -0.733404 -6.08062
v 9.88286 -0.733404 4.17883
v 9.88286 -0.733404 -4.17883
v 8.84763 -4.67649 5.98188
v 9.88286 -0.733404 5.98188
v -8.84763 -4.67649 4.17883
v -8.84763 -4.67649 -4.17883
v -8.84763 -4.67649 5.98188
v -9.88286 -0.733404 5.98188
v -9.88286 -0.733404 -4.17883
v -9.88286 -0.733404 4.17883
v -8.84763 -4.67649 -6.08062
v -9.88286 -0.733404 -6.08062
v 11.419 -5.54407 -6.08061
v 13.9306 -4.48627 -6.08061
v 11.419 -5.54407 5.98188
v 13.9306 -4.48627 5.98188
v -11.419 -5.54407 5.98188
v -13.9306 -4.48627 5.98188
v -11.419 -5.54407 -6.08061
v -13.9306 -4.48627 -6.08061
v 1.60993 5.05964 4.17883
v -1.60993 5.05964 4.17883
v -1.60993 5.05964 5.98188
v 1.60993 5.05964 5.98188
v 4.86172 4.51751 4.17883
v 4.86172 4.51751 5.98188
v -4.86172 4.51751 4.17883
v -4.86172 4.51751 5.98188
v 7.56391 3.27858 4.17883
v 7.56391 3.27858 5.98188
v -7.56391 3.27858 4.17883
v -7.56391 3.27858 5.98188
v 9.37427 1.7362 4.17883
v 9.37427 1.7362 5.98188
v -9.37427 1.7362 4.17883
v -9.37427 1.7362 5.98188
v 10.6974 0.309513 4.17883
v 10.6974 0.309513 5.98188
v -10.6974 0.309513 4.17883
v -10.6974 0.309513 5.98188
v 14.0178 -3.42328 4.17883
v 14.0178 -3.42328 5.98188
v -14.0178 -3.42328 4.17883
v -14.0178 -3.42328 5.98188
v -1.60993 5.05964 -4.17883
v 1.60993 5.05964 -4.17883
v 1.60993 5.05964 -6.08061
v -1.60993 5.05964 -6.08061
v 4.86172 4.51751 -4.17883
v 4.86172 4.51751 -6.08061
v -4.86172 4.51751 -4.17883
v -4.86172 4.51751 -6.08061
v 7.56391 3.27858 -4.17883
v 7.56391 3.27858 -6.08061
v -7.56391 3.27858 -4.17883
v -7.56391 3.27858 -6.08061
v 9.37427 1.7362 -4.17883
v 9.37427 1.7362 -6.08062
v -9.37427 1.7362 -4.17883
v -9.37427 1.7362 -6.08062
v 10.6974 0.309513 -4.17883
v 10.6974 0.309513 -6.08062
v -10.6974 0.309513 -4.17883
v -10.6974 0.309513 -6.08062
v 14.0178 -3.42328 -4.17883
v 14.0178 -3.42328 -6.08061
v -14.0178 -3.42328 -4.17883
v -14.0178 -3.42328 -6.08061
vn 0 0 1
vn -0.07894 0.980153 -0.181848
vn 0.07894 0.980153 -0.181848
vn 0.07894 0.980153 0.181848
vn -0.07894 0.980153 0.181848
vn 0 0 -1
vn 0.092759 -0.995688 0
vn -0.092759 -0.995688 0
vn 0.388139 -0.921601 0
vn -0.388139 -0.921601 0
vn -0.333933 -0.942597 0
vn 0.276127 0.942917 -0.186177
vn 0.276127 0.942917 0.186177
vn 0.333933 -0.942597 0
vn -0.276127 0.942917 0.186177
vn -0.276127 0.942917 -0.186177
vn -0.68507 -0.728477 0
vn 0.52103 0.83541 -0.174981
vn 0.52103 0.83541 0.174981
vn 0.68507 -0.728477 0
vn -0.52103 0.83541 0.174981
vn -0.52103 0.83541 -0.174981
vn -0.898143 -0.439703 0
vn 0.681966 0.714173 -0.157733
vn 0.681966 0.714173 0.157733
vn 0.898143 -0.439703 0
vn -0.681966 0.714173 0.157733
vn -0.681966 0.714173 -0.157733
vn -0.774022 -0.633159 0
vn 0.684371 0.713411 -0.1506
vn 0.684371 0.713411 0.1506
vn 0.774022 -0.633159 0
vn -0.684371 0.713411 0.1506
vn -0.684371 0.713411 -0.1506
vn -0.319698 -0.94752 0
vn 0.140894 -0.334539 -0.93179
vn 0.114501 -0.271871 -0.955498
vn 0.679459 0.732846 -0.035653
vn 0.679459 0.732846 0.035653
vn 0.134478 -0.319306 0.938061
vn 0.109037 -0.258898 0.959731
vn 0.319698 -0.94752 0
vn -0.134478 -0.319306 0.938061
vn -0.109037 -0.258898 0.959731
vn -0.679459 0.732846 0.035653
vn -0.679459 0.732846 -0.035653
vn -0.140894 -0.334539 -0.93179
vn -0.114501 -0.271871 -0.955498
vn 0.083478 0.99651 0
vn -0.083478 0.99651 0
vn 0.28659 0.958053 0
vn -0.28659 0.958053 0
vn 0.524693 0.851292 0
vn -0.524693 0.851292 0
vn 0.68781 0.725891 0
vn -0.68781 0.725891 0
vn 0.743292 0.668967 0
vn -0.743292 0.668967 0
vn 0.747167 0.664636 0
vn -0.747167 0.664636 0
vn 0.99665 -0.081786 0
vn -0.99665 -0.081786 0
vt 0.240818 0.226354
vt 0.235293 0.265255
vt 0.219593 0.266284
vt 0.226024 0.220995
vt 0.205789 0.652005
vt 0.270334 0.651593
vt 0.270739 0.715171
vt 0.206195 0.715583
vt 0.814327 0.25028
vt 0.831277 0.292306
vt 0.815933 0.295049
vt 0.801373 0.25895
vt 0.223753 0.74077
vt 0.279194 0.740416
vt 0.2796 0.803994
vt 0.224159 0.804348
vt 0.849226 0.796997
vt 0.849632 0.860575
vt 0.796157 0.860917
vt 0.795751 0.797338
vt 0.848592 0.697621
vt 0.848997 0.761199
vt 0.795522 0.761541
vt 0.795117 0.697963
vt 0.334752 0.740062
vt 0.335158 0.80364
vt 0.832194 0.340274
vt 0.814672 0.337617
vt 0.334185 0.651185
vt 0.334591 0.714763
vt 0.230314 0.313512
vt 0.246841 0.306664
vt 0.168601 0.804703
vt 0.168195 0.741125
vt 0.249469 0.178619
vt 0.263437 0.189797
vt 0.142343 0.71599
vt 0.141938 0.652412
vt 0.781706 0.215099
vt 0.77093 0.22917
vt 0.444645 0.66377
vt 0.44424 0.600192
vt 0.499005 0.599843
vt 0.499411 0.663421
vt 0.8099 0.387793
vt 0.789331 0.377582
vt 0.405114 0.863412
vt 0.404708 0.799834
vt 0.459474 0.799484
vt 0.45988 0.863062
vt 0.26367 0.354677
vt 0.281353 0.33969
vt 0.015873 0.581545
vt 0.015467 0.517967
vt 0.070233 0.517617
vt 0.070639 0.581195
vt 0.292968 0.148367
vt 0.305779 0.167685
vt 0.40448 0.764036
vt 0.404074 0.700458
vt 0.45884 0.700109
vt 0.459246 0.763686
vt 0.732682 0.196346
vt 0.724953 0.217969
vt 0.588321 0.599273
vt 0.588726 0.662851
vt 0.737948 0.417826
vt 0.773017 0.428743
vt 0.530011 0.799034
vt 0.530417 0.862612
vt 0.341453 0.36668
vt 0.309732 0.385872
vt 0.159548 0.517047
vt 0.159954 0.580625
vt 0.371017 0.158494
vt 0.345893 0.131229
vt 0.529377 0.699658
vt 0.529783 0.763236
vt 0.660028 0.224637
vt 0.677709 0.192444
vt 0.823168 0.597774
vt 0.823574 0.661352
vt 0.595965 0.506602
vt 0.731594 0.468726
vt 0.606031 0.798549
vt 0.606436 0.862127
vt 0.50209 0.419286
vt 0.360008 0.41502
vt 0.394396 0.515549
vt 0.394801 0.579127
vt 0.539949 0.152689
vt 0.402296 0.117231
vt 0.605396 0.699173
vt 0.605802 0.762751
vt 0.496184 0.259212
vt 0.620137 0.19239
vt 0.867027 0.597494
vt 0.867433 0.661072
vt 0.581907 0.55407
vt 0.630889 0.57514
vt 0.527363 0.462395
vt 0.484468 0.494907
vt 0.438255 0.515269
vt 0.43866 0.578847
vt 0.576224 0.11832
vt 0.544076 0.075152
vt 0.453127 0.234782
vt 0.473782 0.185624
vt 0.279688 0.81771
vt 0.224246 0.818064
vt 0.350005 0.616964
vt 0.280869 0.617405
vt 0.280781 0.603689
vt 0.349918 0.603248
vt 0.335245 0.817356
vt 0.419826 0.616519
vt 0.419739 0.602803
vt 0.211047 0.617851
vt 0.21096 0.604135
vt 0.168689 0.818419
vt 0.499499 0.677137
vt 0.444733 0.677486
vt 0.403211 0.799843
vt 0.340579 0.800243
vt 0.340492 0.786527
vt 0.403124 0.786127
vt 0.340351 0.764445
vt 0.402983 0.764046
vt 0.40307 0.777762
vt 0.340438 0.778161
vt 0.01538 0.504251
vt 0.070145 0.503901
vt 0.588814 0.676567
vt 0.481184 0.799346
vt 0.481096 0.78563
vt 0.480955 0.763548
vt 0.481043 0.777264
vt 0.159461 0.503331
vt 0.823661 0.675068
vt 0.553308 0.798886
vt 0.55322 0.785169
vt 0.553079 0.763088
vt 0.553167 0.776804
vt 0.394308 0.501833
vt 0.867521 0.674788
vt 0.795663 0.783623
vt 0.849138 0.783281
vt 0.742013 0.797681
vt 0.741925 0.783965
vt 0.741784 0.761883
vt 0.741872 0.7756
vt 0.849085 0.774916
vt 0.79561 0.775257
vt 0.438167 0.501553
vt 0.280934 0.627607
vt 0.35007 0.627165
vt 0.350163 0.641633
vt 0.281026 0.642074
vt 0.223661 0.726303
vt 0.279102 0.725949
vt 0.419891 0.62672
vt 0.419984 0.641187
vt 0.33466 0.725595
vt 0.168103 0.726657
vt 0.211112 0.628052
vt 0.211205 0.642519
vt 0.340985 0.863821
vt 0.403617 0.863421
vt 0.403709 0.877889
vt 0.341077 0.878288
vt 0.444147 0.585725
vt 0.498913 0.585376
vt 0.070731 0.595662
vt 0.015965 0.596012
vt 0.402577 0.700468
vt 0.339945 0.700867
vt 0.339853 0.6864
vt 0.402485 0.686
vt 0.481589 0.862924
vt 0.481682 0.877391
vt 0.588228 0.584806
vt 0.160046 0.595093
vt 0.480549 0.69997
vt 0.480457 0.685503
vt 0.553713 0.862464
vt 0.553806 0.876931
vt 0.823076 0.583307
vt 0.394894 0.593594
vt 0.552673 0.69951
vt 0.552581 0.685043
vt 0.742419 0.861259
vt 0.742511 0.875727
vt 0.849724 0.875042
vt 0.796249 0.875384
vt 0.866935 0.583027
vt 0.438753 0.593314
vt 0.795025 0.683495
vt 0.848499 0.683154
vt 0.741379 0.698305
vt 0.741287 0.683838
vt 0.940036 0.247491
vt 0.923085 0.205465
vt 0.96623 0.186325
vt 0.984387 0.231341
vt 0.17222 0.2612
vt 0.179108 0.212689
vt 0.940952 0.29546
vt 0.984878 0.284
vt 0.184493 0.312922
vt 0.890464 0.170284
vt 0.930049 0.148061
vt 0.205296 0.166429
vt 0.918658 0.342978
vt 0.959335 0.338227
vt 0.222658 0.359874
vt 0.84144 0.151531
vt 0.874031 0.126731
vt 0.255024 0.131959
vt 0.881775 0.383928
vt 0.918774 0.384014
vt 0.273495 0.394918
vt 0.786467 0.14763
vt 0.813053 0.121898
vt 0.313607 0.112453
vt 0.840352 0.423911
vt 0.879274 0.421453
vt 0.321272 0.422038
vt 0.728895 0.147575
vt 0.758631 0.122342
vt 0.367045 0.099706
vt 0.739647 0.530326
vt 0.775128 0.517432
vt 0.446575 0.490867
vt 0.582541 0.140809
vt 0.617038 0.125477
vt 0.506557 0.068483
vt 0.104223 0.212987
vt 0.097792 0.258275
vt 0.050419 0.253191
vt 0.057307 0.204681
vt 0.857472 0.23114
vt 0.875628 0.276155
vt 0.108512 0.305503
vt 0.062691 0.304913
vt 0.87612 0.328815
vt 0.127668 0.17061
vt 0.083495 0.158421
vt 0.821291 0.192876
vt 0.141869 0.346669
vt 0.100857 0.351865
vt 0.850577 0.383042
vt 0.171166 0.140359
vt 0.133223 0.12395
vt 0.765273 0.171546
vt 0.18793 0.377864
vt 0.151694 0.386909
vt 0.810016 0.428829
vt 0.224092 0.123221
vt 0.191806 0.104445
vt 0.704295 0.166713
vt 0.238207 0.407012
vt 0.19947 0.414029
vt 0.770516 0.466267
vt 0.280495 0.109222
vt 0.245244 0.091698
vt 0.649873 0.167156
vt 0.362667 0.486899
vt 0.324774 0.482858
vt 0.66637 0.562247
vt 0.422275 0.067143
vt 0.384756 0.060474
vt 0.50828 0.170292
usemtl initialShadingGroup
f 1/1/1 2/2/1 3/3/1
f 1/1/1 3/3/1 4/4/1
f 5/5/2 6/6/3 7/7/4
f 5/5/2 7/7/4 8/8/5
f 9/9/6 10/10/6 11/11/6
f 9/9/6 11/11/6 12/12/6
f 13/13/7 14/14/8 15/15/8
f 13/13/7 15/15/8 16/16/7
f 17/17/9 18/18/9 19/19/9
f 17/17/9 19/19/9 20/20/9
f 21/21/10 22/22/10 23/23/10
f 21/21/10 23/23/10 24/24/10
f 15/15/8 14/14/8 25/25/11
f 15/15/8 25/25/11 26/26/11
f 11/11/6 10/10/6 27/27/6
f 11/11/6 27/27/6 28/28/6
f 7/7/4 6/6/3 29/29/12
f 7/7/4 29/29/12 30/30/13
f 3/3/1 2/2/1 31/31/1
f 2/2/1 32/32/1 31/31/1
f 13/13/7 16/16/7 33/33/14
f 13/13/7 33/33/14 34/34/14
f 1/1/1 4/4/1 35/35/1
f 1/1/1 35/35/1 36/36/1
f 5/5/2 8/8/5 37/37/15
f 5/5/2 37/37/15 38/38/16
f 9/9/6 12/12/6 39/39/6
f 12/12/6 40/40/6 39/39/6
f 26/41/11 25/42/11 41/43/17
f 26/41/11 41/43/17 42/44/17
f 28/28/6 27/27/6 43/45/6
f 28/28/6 43/45/6 44/46/6
f 30/47/13 29/48/12 45/49/18
f 30/47/13 45/49/18 46/50/19
f 31/31/1 32/32/1 47/51/1
f 32/32/1 48/52/1 47/51/1
f 34/53/14 33/54/14 49/55/20
f 34/53/14 49/55/20 50/56/20
f 36/36/1 35/35/1 51/57/1
f 36/36/1 51/57/1 52/58/1
f 38/59/16 37/60/15 53/61/21
f 38/59/16 53/61/21 54/62/22
f 39/39/6 40/40/6 55/63/6
f 40/40/6 56/64/6 55/63/6
f 42/44/17 41/43/17 57/65/23
f 42/44/17 57/65/23 58/66/23
f 44/46/6 43/45/6 59/67/6
f 43/45/6 60/68/6 59/67/6
f 46/50/19 45/49/18 61/69/24
f 46/50/19 61/69/24 62/70/25
f 47/51/1 48/52/1 63/71/1
f 47/51/1 63/71/1 64/72/1
f 50/56/20 49/55/20 65/73/26
f 50/56/20 65/73/26 66/74/26
f 52/58/1 51/57/1 67/75/1
f 51/57/1 68/76/1 67/75/1
f 54/62/22 53/61/21 69/77/27
f 54/62/22 69/77/27 70/78/28
f 55/63/6 56/64/6 71/79/6
f 55/63/6 71/79/6 72/80/6
f 58/66/23 57/65/23 73/81/29
f 58/66/23 73/81/29 74/82/29
f 59/67/6 60/68/6 75/83/6
f 60/68/6 76/84/6 75/83/6
f 62/70/25 61/69/24 77/85/30
f 62/70/25 77/85/30 78/86/31
f 64/72/1 63/71/1 79/87/1
f 64/72/1 79/87/1 80/88/1
f 66/74/26 65/73/26 81/89/32
f 66/74/26 81/89/32 82/90/32
f 67/75/1 68/76/1 83/91/1
f 68/76/1 84/92/1 83/91/1
f 70/78/28 69/77/27 85/93/33
f 70/78/28 85/93/33 86/94/34
f 72/80/6 71/79/6 87/95/6
f 72/80/6 87/95/6 88/96/6
f 74/82/29 73/81/29 18/97/35
f 74/82/29 18/97/35 17/98/35
f 75/83/6 76/84/6 89/99/36
f 76/84/6 90/100/37 89/99/36
f 78/86/31 77/85/30 20/20/38
f 78/86/31 20/20/38 19/19/39
f 80/88/1 79/87/1 91/101/40
f 80/88/1 91/101/40 92/102/41
f 82/90/32 81/89/32 22/103/42
f 82/90/32 22/103/42 21/104/42
f 83/91/1 84/92/1 93/105/43
f 84/92/1 94/106/44 93/105/43
f 86/94/34 85/93/33 24/24/45
f 86/94/34 24/24/45 23/23/46
f 88/96/6 87/95/6 95/107/47
f 88/96/6 95/107/47 96/108/48
f 16/16/7 15/15/8 2/109/8
f 16/16/7 2/109/8 1/110/7
f 97/111/49 98/112/50 99/113/50
f 97/111/49 99/113/50 100/114/49
f 15/15/8 26/26/11 32/115/11
f 15/15/8 32/115/11 2/109/8
f 101/116/51 97/111/49 100/114/49
f 101/116/51 100/114/49 102/117/51
f 98/112/50 103/118/52 104/119/52
f 98/112/50 104/119/52 99/113/50
f 33/33/14 16/16/7 1/110/7
f 33/33/14 1/110/7 36/120/14
f 26/41/11 42/44/17 48/121/17
f 26/41/11 48/121/17 32/122/11
f 105/123/53 101/124/51 102/125/51
f 105/123/53 102/125/51 106/126/53
f 103/127/52 107/128/54 108/129/54
f 103/127/52 108/129/54 104/130/52
f 49/55/20 33/54/14 36/131/14
f 49/55/20 36/131/14 52/132/20
f 42/44/17 58/66/23 63/133/23
f 42/44/17 63/133/23 48/121/17
f 109/134/55 105/123/53 106/126/53
f 109/134/55 106/126/53 110/135/55
f 107/128/54 111/136/56 112/137/56
f 107/128/54 112/137/56 108/129/54
f 65/73/26 49/55/20 52/132/20
f 65/73/26 52/132/20 67/138/26
f 58/66/23 74/82/29 79/139/29
f 58/66/23 79/139/29 63/133/23
f 113/140/57 109/134/55 110/135/55
f 113/140/57 110/135/55 114/141/57
f 111/136/56 115/142/58 116/143/58
f 111/136/56 116/143/58 112/137/56
f 81/89/32 65/73/26 67/138/26
f 81/89/32 67/138/26 83/144/32
f 74/82/29 17/98/35 91/145/35
f 74/82/29 91/145/35 79/139/29
f 17/17/9 20/20/9 92/146/41
f 17/17/9 92/146/41 91/147/40
f 117/148/59 113/140/57 114/141/57
f 117/148/59 114/141/57 118/149/59
f 115/142/58 119/150/60 120/151/60
f 115/142/58 120/151/60 116/143/58
f 23/23/10 22/22/10 93/152/43
f 23/23/10 93/152/43 94/153/44
f 22/103/42 81/89/32 83/144/32
f 22/103/42 83/144/32 93/154/42
f 121/155/50 122/156/49 123/157/49
f 121/155/50 123/157/49 124/158/50
f 14/14/8 13/13/7 12/159/7
f 14/14/8 12/159/7 11/160/8
f 122/156/49 125/161/51 126/162/51
f 122/156/49 126/162/51 123/157/49
f 25/25/11 14/14/8 11/160/8
f 25/25/11 11/160/8 28/163/11
f 13/13/7 34/34/14 40/164/14
f 13/13/7 40/164/14 12/159/7
f 127/165/52 121/155/50 124/158/50
f 127/165/52 124/158/50 128/166/52
f 125/167/51 129/168/53 130/169/53
f 125/167/51 130/169/53 126/170/51
f 41/43/17 25/42/11 28/171/11
f 41/43/17 28/171/11 44/172/17
f 34/53/14 50/56/20 56/173/20
f 34/53/14 56/173/20 40/174/14
f 131/175/54 127/176/52 128/177/52
f 131/175/54 128/177/52 132/178/54
f 129/168/53 133/179/55 134/180/55
f 129/168/53 134/180/55 130/169/53
f 57/65/23 41/43/17 44/172/17
f 57/65/23 44/172/17 59/181/23
f 50/56/20 66/74/26 71/182/26
f 50/56/20 71/182/26 56/173/20
f 135/183/56 131/175/54 132/178/54
f 135/183/56 132/178/54 136/184/56
f 133/179/55 137/185/57 138/186/57
f 133/179/55 138/186/57 134/180/55
f 73/81/29 57/65/23 59/181/23
f 73/81/29 59/181/23 75/187/29
f 66/74/26 82/90/32 87/188/32
f 66/74/26 87/188/32 71/182/26
f 139/189/58 135/183/56 136/184/56
f 139/189/58 136/184/56 140/190/58
f 137/185/57 141/191/59 142/192/59
f 137/185/57 142/192/59 138/186/57
f 19/19/9 18/18/9 89/193/36
f 19/19/9 89/193/36 90/194/37
f 18/97/35 73/81/29 75/187/29
f 18/97/35 75/187/29 89/195/35
f 82/90/32 21/104/42 95/196/42
f 82/90/32 95/196/42 87/188/32
f 21/21/10 24/24/10 96/197/48
f 21/21/10 96/197/48 95/198/47
f 143/199/60 139/189/58 140/190/58
f 143/199/60 140/190/58 144/200/60
f 6/201/3 5/202/2 98/203/6
f 6/201/3 98/203/6 97/204/6
f 4/4/1 3/3/1 100/205/1
f 4/4/1 100/205/1 99/206/1
f 29/207/12 6/201/3 97/204/6
f 29/207/12 97/204/6 101/208/6
f 3/3/1 31/31/1 100/205/1
f 31/31/1 102/209/1 100/205/1
f 5/202/2 38/210/16 98/203/6
f 38/210/16 103/211/6 98/203/6
f 35/35/1 4/4/1 99/206/1
f 35/35/1 99/206/1 104/212/1
f 45/213/18 29/207/12 101/208/6
f 45/213/18 101/208/6 105/214/6
f 31/31/1 47/51/1 102/209/1
f 47/51/1 106/215/1 102/209/1
f 38/210/16 54/216/22 103/211/6
f 54/216/22 107/217/6 103/211/6
f 51/57/1 35/35/1 104/212/1
f 51/57/1 104/212/1 108/218/1
f 61/219/24 45/213/18 109/220/6
f 45/213/18 105/214/6 109/220/6
f 47/51/1 64/72/1 110/221/1
f 47/51/1 110/221/1 106/215/1
f 54/216/22 70/222/28 111/223/6
f 54/216/22 111/223/6 107/217/6
f 68/76/1 51/57/1 112/224/1
f 51/57/1 108/218/1 112/224/1
f 77/225/30 61/219/24 113/226/6
f 61/219/24 109/220/6 113/226/6
f 64/72/1 80/88/1 114/227/1
f 64/72/1 114/227/1 110/221/1
f 70/222/28 86/228/34 115/229/6
f 70/222/28 115/229/6 111/223/6
f 84/92/1 68/76/1 116/230/1
f 68/76/1 112/224/1 116/230/1
f 20/231/38 77/225/30 117/232/6
f 77/225/30 113/226/6 117/232/6
f 80/88/1 92/102/41 118/233/1
f 80/88/1 118/233/1 114/227/1
f 92/146/61 20/20/61 117/148/61
f 92/146/61 117/148/61 118/149/61
f 86/228/34 23/234/46 119/235/6
f 86/228/34 119/235/6 115/229/6
f 23/23/62 94/153/62 120/151/62
f 23/23/62 120/151/62 119/150/62
f 94/106/44 84/92/1 120/236/1
f 84/92/1 116/230/1 120/236/1
f 8/237/5 7/238/4 122/239/1
f 8/237/5 122/239/1 121/240/1
f 10/10/6 9/9/6 124/241/6
f 10/10/6 124/241/6 123/242/6
f 7/238/4 30/243/13 122/239/1
f 30/243/13 125/244/1 122/239/1
f 27/27/6 10/10/6 123/242/6
f 27/27/6 123/242/6 126/245/6
f 37/246/15 8/237/5 121/240/1
f 37/246/15 121/240/1 127/247/1
f 9/9/6 39/39/6 124/241/6
f 39/39/6 128/248/6 124/241/6
f 30/243/13 46/249/19 125/244/1
f 46/249/19 129/250/1 125/244/1
f 43/45/6 27/27/6 126/245/6
f 43/45/6 126/245/6 130/251/6
f 53/252/21 37/246/15 127/247/1
f 53/252/21 127/247/1 131/253/1
f 39/39/6 55/63/6 128/248/6
f 55/63/6 132/254/6 128/248/6
f 46/249/19 62/255/25 133/256/1
f 46/249/19 133/256/1 129/250/1
f 60/68/6 43/45/6 134/257/6
f 43/45/6 130/251/6 134/257/6
f 69/258/27 53/252/21 135/259/1
f 53/252/21 131/253/1 135/259/1
f 55/63/6 72/80/6 136/260/6
f 55/63/6 136/260/6 132/254/6
f 62/255/25 78/261/31 137/262/1
f 62/255/25 137/262/1 133/256/1
f 76/84/6 60/68/6 138/263/6
f 60/68/6 134/257/6 138/263/6
f 85/264/33 69/258/27 139/265/1
f 69/258/27 135/259/1 139/265/1
f 72/80/6 88/96/6 140/266/6
f 72/80/6 140/266/6 136/260/6
f 78/261/31 19/267/39 141/268/1
f 78/261/31 141/268/1 137/262/1
f 19/19/61 90/194/61 142/192/61
f 19/19/61 142/192/61 141/191/61
f 90/100/37 76/84/6 142/269/6
f 76/84/6 138/263/6 142/269/6
f 24/270/45 85/264/33 143/271/1
f 85/264/33 139/265/1 143/271/1
f 88/96/6 96/108/48 144/272/6
f 88/96/6 144/272/6 140/266/6
f 96/197/62 24/24/62 143/199/62
f 96/197/62 143/199/62 144/200/62
s off
