# Apple ModelIO OBJ File: ecoductpaal
mtllib ecoductpaal.mtl
g pCube5_lambert2SG
v 4.84147 -7.92895 5.21422
v 5.49731 -7.96497 5.21422
v 6.04389 5.68015 5.21422
v 5.39805 5.89818 5.21422
v 5.53834 7.57414 5.16812
v 6.09171 7.4292 5.16812
v 6.08863 7.37306 4.63173
v 5.53207 7.45994 4.63173
v 5.4056 6.03577 4.58563
v 6.06145 5.99975 4.58563
v 5.49731 -7.96497 4.58563
v 4.84147 -7.92895 4.58563
v 5.53001 6.23626 5.10587
v 5.95975 6.21265 5.10587
v 5.95975 6.21265 4.69398
v 5.53001 6.23626 4.69398
v 5.36787 6.62739 5.28133
v 6.16111 6.53579 5.28133
v 6.16111 6.53579 4.51852
v 5.36524 6.5795 4.51852
v 5.40539 7.31048 5.28133
v 6.19262 7.10947 5.28133
v 6.19262 7.10947 4.51852
v 5.39475 7.11673 4.51852
vn 0 0 1
vn 0.201971 0.966998 -0.155313
vn 0 0 -1
vn -0.054841 -0.998495 0
vn 0.999185 -0.040196 0.003733
vn -0.999187 0.040292 -0.001596
vn 0.053563 0.238433 0.969681
vn 0.966334 0.240923 0.090305
vn 0.025432 0.463041 -0.885972
vn -0.901785 0.429258 0.050215
vn -0.901785 0.429259 0.050215
vn -0.041329 -0.438751 0.897658
vn 0.848698 -0.528877 0
vn -0.025523 -0.464698 -0.885101
vn -0.913417 -0.4066 0.01862
vn 0.016871 0.065377 0.997718
vn 0.016344 0.063336 0.997858
vn 0.998495 -0.054841 0
vn 0.999823 0.01854 -0.003174
vn 0.999813 0.019085 -0.003198
vn 0.004981 0.071669 -0.997416
vn 0.004961 0.071382 -0.997437
vn -0.998495 0.054841 0
vn -0.992018 0.124986 -0.016711
vn -0.99233 0.122563 -0.016132
vn 0.091839 0.355889 0.930004
vn 0.943353 0.331376 -0.01656
vn 0.02421 0.348318 -0.937064
vn -0.910256 0.405385 -0.08424
vt 0.262234 0.821155
vt 0.326719 0.821155
vt 0.306833 0.978011
vt 0.242348 0.980105
vt 0.173912 0.832769
vt 0.228937 0.832769
vt 0.228937 0.887795
vt 0.173912 0.887795
vt 0.034965 0.659453
vt 0.09945 0.659453
vt 0.119336 0.819986
vt 0.054852 0.819986
vt 0.034965 0.900577
vt 0.09945 0.900577
vt 0.09945 0.965062
vt 0.034965 0.965062
vt 0.121227 0.659453
vt 0.185711 0.659453
vt 0.185711 0.819986
vt 0.121227 0.816309
vt 0.18802 0.659453
vt 0.252505 0.659453
vt 0.18802 0.819986
vt 0.252505 0.818403
vt 0.101816 0.900578
vt 0.166301 0.900578
vt 0.112932 0.911693
vt 0.155185 0.911693
vt 0.166301 0.965062
vt 0.155185 0.953947
vt 0.101816 0.965062
vt 0.112932 0.953947
vt 0.100248 0.881409
vt 0.142501 0.881409
vt 0.082248 0.899408
vt 0.160501 0.899408
vt 0.142501 0.839155
vt 0.160501 0.821155
vt 0.100248 0.839155
vt 0.082248 0.821155
vt 0.072592 0.899408
vt 0.072041 0.821155
vt 0.080451 0.899408
vt 0.078642 0.821155
vt 0.063644 0.899408
vt 0.063644 0.821155
vt 0.070244 0.821155
vt 0.070244 0.899408
vt 0.061847 0.821155
vt 0.061847 0.899407
vt 0.055666 0.899407
vt 0.055247 0.821155
vt 0.04504 0.899408
vt 0.045591 0.821155
vt 0.05345 0.821155
vt 0.05122 0.899408
vt 0.162298 0.821155
vt 0.240551 0.821155
vt 0.240551 0.899408
vt 0.162298 0.899408
usemtl lambert2SG
f 1/1/1 2/2/1 3/3/1
f 1/1/1 3/3/1 4/4/1
f 5/5/2 6/6/2 7/7/2
f 5/5/2 7/7/2 8/8/2
f 9/9/3 10/10/3 11/11/3
f 9/9/3 11/11/3 12/12/3
f 12/13/4 11/14/4 2/15/4
f 12/13/4 2/15/4 1/16/4
f 2/17/5 11/18/5 10/19/5
f 2/17/5 10/19/5 3/20/5
f 12/21/6 1/22/6 9/23/6
f 1/22/6 4/24/6 9/23/6
f 4/25/7 3/26/7 13/27/7
f 3/26/7 14/28/7 13/27/7
f 3/26/8 10/29/8 15/30/8
f 3/26/8 15/30/8 14/28/8
f 10/29/9 9/31/9 15/30/9
f 9/31/9 16/32/9 15/30/9
f 9/31/10 4/25/10 16/32/10
f 4/25/10 13/27/11 16/32/10
f 13/33/12 14/34/12 17/35/12
f 14/34/12 18/36/12 17/35/12
f 14/34/13 15/37/13 19/38/13
f 14/34/13 19/38/13 18/36/13
f 15/37/14 16/39/14 20/40/14
f 15/37/14 20/40/14 19/38/14
f 16/39/15 13/33/15 17/35/15
f 16/39/15 17/35/15 20/40/15
f 17/41/1 18/42/1 21/43/16
f 18/42/1 22/44/17 21/43/16
f 18/45/18 19/46/18 23/47/19
f 18/45/18 23/47/19 22/48/20
f 19/49/3 20/50/3 24/51/21
f 19/49/3 24/51/21 23/52/22
f 20/53/23 17/54/23 21/55/24
f 20/53/23 21/55/24 24/56/25
f 21/57/16 22/58/17 6/6/26
f 21/57/16 6/6/26 5/5/26
f 22/58/20 23/59/19 7/7/27
f 22/58/20 7/7/27 6/6/27
f 23/59/22 24/60/21 7/7/28
f 24/60/21 8/8/28 7/7/28
f 24/60/25 21/57/24 5/5/29
f 24/60/25 5/5/29 8/8/29
s off
g pCube4_lambert2SG
v -6.28361 -7.53235 5.39407
v -5.67735 -7.54471 5.39407
v -5.46988 6.3252 5.39407
v -6.08257 6.02207 5.39407
v -6.00255 7.76533 5.34666
v -5.48522 7.75478 5.34666
v -5.48636 7.69856 4.79509
v -6.00255 7.76533 4.79509
v -6.07614 6.33756 4.74768
v -5.46988 6.3252 4.74768
v -6.28361 -7.53235 4.74768
v -5.67735 -7.54471 4.74768
v -5.57017 6.5343 5.28265
v -5.96742 6.5424 5.28265
v -5.57017 6.5343 4.8591
v -5.96742 6.5424 4.8591
v -6.12886 6.92742 5.46307
v -5.39414 6.86447 5.46307
v -5.39414 6.86447 4.67868
v -6.12984 6.87947 4.67868
v -5.38243 7.4389 5.46307
v -6.11813 7.4539 5.46307
v -5.38243 7.4389 4.67868
v -6.1205 7.33741 4.67868
vn 0 0 1
vn 0.074501 0.995925 -0.050832
vn 0 0 -1
vn -0.020383 -0.999792 0
vn 0.999888 -0.014957 0
vn -0.999888 0.014894 -0.00134
vn -0.085506 0.292694 0.952376
vn -0.085506 0.292694 0.952375
vn 0.901661 0.432443 0
vn 0.009661 0.47385 -0.880553
vn -0.952363 0.294019 0.080974
vn -0.028232 -0.449824 0.892671
vn 0.882425 -0.470452 0
vn 0.882426 -0.470452 0
vn -0.009695 -0.475525 -0.879649
vn -0.912297 -0.409178 0.01698
vn 0.001507 0.073929 0.997262
vn 0.999792 -0.020383 0
vn 0.998873 0.047388 -0.002851
vn 0.998848 0.04789 -0.002872
vn -0.002125 0.076757 -0.997048
vn -0.00212 0.076556 -0.997063
vn -0.999792 0.020383 0
vn -0.995542 0.094097 -0.006435
vn -0.995612 0.093363 -0.006371
vn 0.007091 0.347822 0.937534
vn 0.941024 0.338007 -0.015031
vn -0.008885 0.320876 -0.94708
vn -0.953274 0.301107 -0.024561
vt 0.679572 0.663128
vt 0.752567 0.663128
vt 0.743504 0.843502
vt 0.670509 0.839398
vt 0.919761 0.857949
vt 0.982049 0.857949
vt 0.982049 0.920237
vt 0.919761 0.920237
vt 0.755071 0.663128
vt 0.828066 0.663128
vt 0.764134 0.843501
vt 0.837129 0.843501
vt 0.703156 0.917797
vt 0.703156 0.844803
vt 0.77615 0.844803
vt 0.77615 0.917797
vt 0.83957 0.663128
vt 0.912564 0.663128
vt 0.912564 0.843502
vt 0.83957 0.843502
vt 0.915174 0.663128
vt 0.988168 0.663128
vt 0.915174 0.843502
vt 0.988168 0.839398
vt 0.670509 0.919099
vt 0.743504 0.919099
vt 0.730921 0.931681
vt 0.683092 0.931681
vt 0.743504 0.992093
vt 0.730921 0.979511
vt 0.670509 0.992093
vt 0.683092 0.979511
vt 0.83641 0.913008
vt 0.88424 0.913008
vt 0.816035 0.933383
vt 0.904615 0.933383
vt 0.88424 0.865178
vt 0.904615 0.844803
vt 0.83641 0.865178
vt 0.816035 0.844803
vt 0.807188 0.933382
vt 0.806564 0.844802
vt 0.814035 0.844802
vt 0.814035 0.933382
vt 0.797093 0.933382
vt 0.797093 0.844802
vt 0.804564 0.844802
vt 0.804564 0.933382
vt 0.795093 0.844802
vt 0.795093 0.933381
vt 0.787622 0.844802
vt 0.789137 0.933381
vt 0.77815 0.933382
vt 0.778774 0.844802
vt 0.785622 0.844802
vt 0.784106 0.933382
vt 0.906615 0.844803
vt 0.995195 0.844803
vt 0.995195 0.933383
vt 0.906615 0.933383
usemtl lambert2SG
f 25/61/30 26/62/30 27/63/30
f 25/61/30 27/63/30 28/64/30
f 29/65/31 30/66/31 31/67/31
f 29/65/31 31/67/31 32/68/31
f 33/69/32 34/70/32 35/71/32
f 34/70/32 36/72/32 35/71/32
f 35/73/33 36/74/33 26/75/33
f 35/73/33 26/75/33 25/76/33
f 26/77/34 36/78/34 34/79/34
f 26/77/34 34/79/34 27/80/34
f 35/81/35 25/82/35 33/83/35
f 25/82/35 28/84/35 33/83/35
f 28/85/36 27/86/37 37/87/36
f 28/85/36 37/87/36 38/88/37
f 27/86/38 34/89/38 39/90/38
f 27/86/38 39/90/38 37/87/38
f 34/89/39 33/91/39 39/90/39
f 33/91/39 40/92/39 39/90/39
f 33/91/40 28/85/40 40/92/40
f 28/85/40 38/88/40 40/92/40
f 38/93/41 37/94/41 41/95/41
f 37/94/41 42/96/41 41/95/41
f 37/94/42 39/97/42 43/98/43
f 37/94/42 43/98/43 42/96/43
f 39/97/44 40/99/44 43/98/44
f 40/99/44 44/100/44 43/98/44
f 40/99/45 38/93/45 41/95/45
f 40/99/45 41/95/45 44/100/45
f 41/101/30 42/102/30 45/103/46
f 41/101/30 45/103/46 46/104/46
f 42/105/47 43/106/47 47/107/48
f 42/105/47 47/107/48 45/108/49
f 43/109/32 44/110/32 47/111/50
f 44/110/32 48/112/51 47/111/50
f 44/113/52 41/114/52 46/115/53
f 44/113/52 46/115/53 48/116/54
f 46/117/46 45/118/46 30/66/55
f 46/117/46 30/66/55 29/65/55
f 45/118/49 47/119/48 31/67/56
f 45/118/49 31/67/56 30/66/56
f 47/119/50 48/120/51 31/67/57
f 48/120/51 32/68/57 31/67/57
f 48/120/54 46/117/53 29/65/58
f 48/120/54 29/65/58 32/68/58
s off
g pCube2_lambert2SG
v 4.53996 -7.37783 -5.0088
v 5.1896 -7.37783 -5.0088
v 5.1896 5.39322 -5.0088
v 4.53996 5.48011 -5.0088
v 4.5876 6.90908 -5.05592
v 5.14195 6.90908 -5.05592
v 4.5876 6.79156 -5.6041
v 5.14195 6.90908 -5.6041
v 4.53996 5.29804 -5.65122
v 5.28921 5.54014 -5.65122
v 4.61071 -7.37783 -5.65122
v 5.1896 -7.37783 -5.65122
v 4.65194 5.68712 -5.11954
v 5.07762 5.68712 -5.11954
v 5.07762 5.68712 -5.54048
v 4.65194 5.68712 -5.54048
v 5.25895 6.02081 -4.94022
v 4.4706 6.02081 -4.94022
v 5.25895 6.02081 -5.7198
v 4.4706 6.02081 -5.7198
v 5.25895 6.59536 -4.94022
v 4.4706 6.59536 -4.94022
v 5.25895 6.59536 -5.7198
v 4.4706 6.67361 -5.7198
vn 0 0 1
vn -0.104814 0.988827 -0.105993
vn 0 0 -1
vn 0 -1 1e-06
vn 0.997034 -0.003866 0.07686
vn -0.998505 -0.002767 -0.054593
vn 0.032661 0.404156 0.914107
vn 0.796388 0.584489 0.155367
vn -0.075963 0.368643 -0.926462
vn -0.934416 0.351075 -0.060115
vn 0 -0.473358 0.88087
vn 0.878646 -0.477473 0
vn 0 -0.473358 -0.88087
vn -0.878646 -0.477473 0
vn 0 0.07103 0.997474
vn 1 0 0
vn 0.997417 0.071825 0
vn -0.002061 0.070462 -0.997512
vn -0.002068 0.070706 -0.997495
vn -1 0 0
vn -0.997439 0.071497 -0.002115
vn -0.997456 0.07125 -0.002107
vn 0 0.346013 0.93823
vn 0.936962 0.349433 0
vn -0.013816 0.472409 -0.881271
vn -0.879051 0.47652 -0.014094
vt 0.496817 0.639443
vt 0.575417 0.639443
vt 0.575417 0.818263
vt 0.496817 0.81948
vt 0.580395 0.834991
vt 0.647466 0.834991
vt 0.580395 0.902062
vt 0.647466 0.902062
vt 0.323309 0.642834
vt 0.413961 0.639443
vt 0.331869 0.82032
vt 0.401909 0.82032
vt 0.331869 0.913684
vt 0.401909 0.913684
vt 0.401909 0.992284
vt 0.323309 0.992284
vt 0.416054 0.639443
vt 0.494654 0.639443
vt 0.494654 0.82032
vt 0.416054 0.818263
vt 0.57758 0.639443
vt 0.65618 0.639443
vt 0.57758 0.81693
vt 0.65618 0.81948
vt 0.345384 0.912328
vt 0.345384 0.833729
vt 0.358932 0.89878
vt 0.358932 0.847277
vt 0.423984 0.821676
vt 0.410435 0.847277
vt 0.423984 0.912328
vt 0.410435 0.89878
vt 0.490714 0.895118
vt 0.542216 0.895118
vt 0.564156 0.917058
vt 0.468774 0.917058
vt 0.542216 0.843616
vt 0.564156 0.821676
vt 0.490714 0.843616
vt 0.468774 0.821676
vt 0.458645 0.917057
vt 0.458645 0.821676
vt 0.46669 0.821676
vt 0.46669 0.917057
vt 0.448517 0.917058
vt 0.448517 0.821676
vt 0.456561 0.821676
vt 0.456561 0.917058
vt 0.446433 0.821676
vt 0.446433 0.917057
vt 0.437292 0.917057
vt 0.438387 0.821676
vt 0.426068 0.917058
vt 0.426068 0.821676
vt 0.434113 0.821676
vt 0.435208 0.917058
vt 0.56624 0.820836
vt 0.661621 0.820836
vt 0.661621 0.916217
vt 0.56624 0.916217
usemtl lambert2SG
f 49/121/59 50/122/59 51/123/59
f 49/121/59 51/123/59 52/124/59
f 53/125/60 54/126/60 55/127/60
f 54/126/60 56/128/60 55/127/60
f 57/129/61 58/130/61 59/131/61
f 58/130/61 60/132/61 59/131/61
f 59/133/62 60/134/62 50/135/62
f 59/133/62 50/135/62 49/136/62
f 50/137/63 60/138/63 58/139/63
f 50/137/63 58/139/63 51/140/63
f 59/141/64 49/142/64 57/143/64
f 49/142/64 52/144/64 57/143/64
f 52/145/65 51/146/65 61/147/65
f 51/146/65 62/148/65 61/147/65
f 51/146/66 58/149/66 63/150/66
f 51/146/66 63/150/66 62/148/66
f 58/149/67 57/151/67 63/150/67
f 57/151/67 64/152/67 63/150/67
f 57/151/68 52/145/68 61/147/68
f 57/151/68 61/147/68 64/152/68
f 61/153/69 62/154/69 65/155/69
f 61/153/69 65/155/69 66/156/69
f 62/154/70 63/157/70 67/158/70
f 62/154/70 67/158/70 65/155/70
f 63/157/71 64/159/71 68/160/71
f 63/157/71 68/160/71 67/158/71
f 64/159/72 61/153/72 66/156/72
f 64/159/72 66/156/72 68/160/72
f 66/161/59 65/162/59 69/163/73
f 66/161/59 69/163/73 70/164/73
f 65/165/74 67/166/74 71/167/75
f 65/165/74 71/167/75 69/168/75
f 67/169/61 68/170/61 72/171/76
f 67/169/61 72/171/76 71/172/77
f 68/173/78 66/174/78 70/175/79
f 68/173/78 70/175/79 72/176/80
f 70/177/73 69/178/73 54/126/81
f 70/177/73 54/126/81 53/125/81
f 69/178/75 71/179/75 56/128/82
f 69/178/75 56/128/82 54/126/82
f 71/179/77 72/180/76 55/127/83
f 71/179/77 55/127/83 56/128/83
f 72/180/80 70/177/79 55/127/84
f 70/177/79 53/125/84 55/127/84
s off
g pCube3_lambert2SG
v -5.28263 -7.9515 -5.41745
v -4.62653 -7.8923 -5.46786
v -6.12771 5.55708 -4.89008
v -5.46405 5.52849 -4.9452
v -6.19938 6.91241 -4.8663
v -5.62498 6.7941 -4.91838
v -6.24052 6.92188 -5.39073
v -5.68066 6.9724 -5.43374
v -6.16988 5.49798 -5.50843
v -5.48938 5.27383 -5.57406
v -4.67626 -7.86361 -6.08149
v -5.33236 -7.92281 -6.03109
v -6.03336 5.69039 -4.99819
v -5.60345 5.72919 -5.03122
v -5.63603 5.74798 -5.4333
v -6.06595 5.70919 -5.40028
v -6.2312 5.99785 -4.795
v -5.43501 6.06969 -4.85617
v -5.49536 6.1045 -5.60082
v -6.29155 6.03266 -5.53965
v -6.26602 6.4022 -4.77327
v -5.48423 6.6413 -4.82545
v -5.54458 6.67612 -5.57011
v -6.33454 6.53199 -5.51282
vn 0.080439 -0.033817 0.996186
vn 0.073035 0.982621 0.17065
vn -0.082334 0.033515 -0.996041
vn 0.085661 -0.994889 -0.053457
vn 0.995315 0.064649 -0.07189
vn -0.994991 -0.065126 0.075833
vn 0.064499 0.507954 0.858966
vn 0.90725 0.396045 -0.141583
vn -0.026812 0.339758 -0.940131
vn -0.86588 0.498334 0.043758
vn 0.110974 -0.497264 0.860473
vn 0.910582 -0.402814 -0.092631
vn 0.910583 -0.402814 -0.092631
vn -0.032469 -0.414513 -0.909464
vn -0.827713 -0.559658 0.040915
vn 0.080692 -0.04655 0.995651
vn 0.073942 0.030221 0.996804
vn 0.073992 0.029673 0.996817
vn 0.993051 0.089602 -0.076292
vn 0.984475 0.163847 -0.062945
vn 0.984269 0.165174 -0.062701
vn -0.080692 0.04655 -0.995651
vn -0.090226 0.116022 -0.98914
vn -0.090288 0.116481 -0.98908
vn -0.993051 -0.089602 0.076292
vn -0.996301 -0.008504 0.085509
vn -0.996301 -0.008093 0.085554
vn 0.049343 0.274833 0.960225
vn 0.85166 0.523996 0.010201
vn -0.118766 0.343599 -0.931576
vn -0.979688 0.171509 0.103901
vt 0.675271 0.281386
vt 0.743637 0.289209
vt 0.690647 0.450209
vt 0.759136 0.456957
vt 0.84475 0.481738
vt 0.903088 0.488414
vt 0.838075 0.540076
vt 0.896413 0.546752
vt 0.904178 0.30758
vt 0.972147 0.318872
vt 0.919551 0.475314
vt 0.851185 0.46749
vt 0.638763 0.600426
vt 0.646586 0.53206
vt 0.714952 0.539883
vt 0.707129 0.608249
vt 0.91909 0.476682
vt 0.987456 0.484505
vt 0.919415 0.642694
vt 0.988178 0.647049
vt 0.799246 0.295572
vt 0.867612 0.303396
vt 0.829669 0.466117
vt 0.761426 0.457219
vt 0.717229 0.540144
vt 0.785595 0.547967
vt 0.727665 0.553277
vt 0.772462 0.558403
vt 0.777772 0.616333
vt 0.767336 0.6032
vt 0.709406 0.60851
vt 0.722539 0.598074
vt 0.7605 0.52434
vt 0.805297 0.529467
vt 0.739233 0.54124
vt 0.822196 0.550733
vt 0.810423 0.484669
vt 0.83169 0.46777
vt 0.765626 0.479543
vt 0.748726 0.458276
vt 0.730079 0.540192
vt 0.739572 0.457229
vt 0.735028 0.540758
vt 0.74657 0.45803
vt 0.720924 0.539145
vt 0.730418 0.456181
vt 0.727922 0.539945
vt 0.737415 0.456982
vt 0.728261 0.455934
vt 0.718767 0.538897
vt 0.712655 0.538198
vt 0.721263 0.455133
vt 0.7035 0.537151
vt 0.712994 0.454187
vt 0.717944 0.454754
vt 0.709613 0.53785
vt 0.833847 0.468017
vt 0.91681 0.47751
vt 0.907316 0.560474
vt 0.824353 0.55098
usemtl lambert2SG
f 73/181/85 74/182/85 75/183/85
f 74/182/85 76/184/85 75/183/85
f 77/185/86 78/186/86 79/187/86
f 78/186/86 80/188/86 79/187/86
f 81/189/87 82/190/87 83/191/87
f 81/189/87 83/191/87 84/192/87
f 84/193/88 83/194/88 74/195/88
f 84/193/88 74/195/88 73/196/88
f 74/197/89 83/198/89 76/199/89
f 83/198/89 82/200/89 76/199/89
f 84/201/90 73/202/90 75/203/90
f 84/201/90 75/203/90 81/204/90
f 75/205/91 76/206/91 85/207/91
f 76/206/91 86/208/91 85/207/91
f 76/206/92 82/209/92 86/208/92
f 82/209/92 87/210/92 86/208/92
f 82/209/93 81/211/93 88/212/93
f 82/209/93 88/212/93 87/210/93
f 81/211/94 75/205/94 85/207/94
f 81/211/94 85/207/94 88/212/94
f 85/213/95 86/214/95 89/215/95
f 86/214/95 90/216/95 89/215/95
f 86/214/96 87/217/96 91/218/97
f 86/214/96 91/218/97 90/216/97
f 87/217/98 88/219/98 91/218/98
f 88/219/98 92/220/98 91/218/98
f 88/219/99 85/213/99 89/215/99
f 88/219/99 89/215/99 92/220/99
f 89/221/100 90/222/100 93/223/101
f 90/222/100 94/224/102 93/223/101
f 90/225/103 91/226/103 94/227/104
f 91/226/103 95/228/105 94/227/104
f 91/229/106 92/230/106 96/231/107
f 91/229/106 96/231/107 95/232/108
f 92/233/109 89/234/109 93/235/110
f 92/233/109 93/235/110 96/236/111
f 93/237/101 94/238/102 78/186/112
f 93/237/101 78/186/112 77/185/112
f 94/238/104 95/239/105 78/186/113
f 95/239/105 80/188/113 78/186/113
f 95/239/108 96/240/107 80/188/114
f 96/240/107 79/187/114 80/188/114
f 96/240/111 93/237/110 79/187/115
f 93/237/110 77/185/115 79/187/115
s off
