mtllib materials.mtl
v 0.2843666 -0.411733 0.1322923
v 0.2408569 -0.4089892 0.1649306
v 0.1251173 -0.2609034 0.2701595
v 0.310415 -0.2305261 0.1397398
v -0.09836864 -0.3699863 -0.325115
v -0.09831643 -0.1936719 -0.3072312
v -0.303418 -0.2573251 -0.1583177
v -0.1365069 -0.3859632 -0.2860426
v 0.09199417 -0.4115818 -0.1038363
v -0.07217193 -0.427449 0.03276986
v 0.1484113 0.3814955 0.2567955
v 0.08847022 0.3812211 0.3197522
v -0.1377792 0.4201243 0.1351777
v -0.08100474 0.4370415 0.07977539
v 0.1634459 -0.2514977 -0.1635707
v -0.156327 -0.2730708 0.1168937
v -0.2413907 0.4186437 -0.1673266
v -0.1279181 0.206282 -0.2808189
v 0.1197674 0.2250139 -0.08714643
v -0.2802836 0.4064085 -0.1204728
v -0.1054026 0.01049721 -0.3283232
v 0.1772584 -0.03825808 -0.1752322
v -0.3257902 0.1903578 -0.1311841
v -0.3360134 -0.01480114 -0.1350763
v -0.1774604 0.1888306 0.1661059
v -0.1713928 -0.1263551 0.1607371
v 0.09433055 0.1617053 0.3222675
v 0.08573794 -0.0852201 0.3034268
v 0.2545503 0.1884692 0.2090389
v 0.2852287 -0.0231868 0.1843331
v 0.07346952 0.3653227 0.2910342
v 0.08743477 0.3591434 0.271651
v 0.154304 0.4363685 0.3022017
v 0.1208289 0.4388173 0.3497292
v 0.07959735 0.3505864 0.3098546
v 0.09734976 0.3352998 0.3021031
v 0.1021936 0.3405885 0.2784921
v 0.196946 0.3980631 0.3121973
v 0.1898236 0.3768376 0.3659027
v 0.1427809 0.4020251 0.389099
v 0.226124 0.4673488 0.3923814
v -0.2595228 0.3597423 -0.1084106
v -0.2393991 0.3576218 -0.1225335
v -0.2939317 0.4090483 -0.1983626
v -0.3333696 0.4174604 -0.1564182
v -0.2569808 0.3799661 -0.0945017
v -0.2352862 0.3903445 -0.1000288
v -0.2244202 0.3765351 -0.1173534
v -0.2567743 0.4538128 -0.1973456
v -0.2732482 0.4898901 -0.1547714
v -0.3205867 0.4674234 -0.1294769
v -0.3453869 0.5143192 -0.2211818
v -0.1013721 -0.3378867 -0.2800526
v -0.1153394 -0.35741 -0.2743362
v -0.1163405 -0.3802454 -0.3784809
v -0.07663631 -0.337895 -0.3824129
v -0.07771826 -0.3443892 -0.2773824
v -0.07706678 -0.3679312 -0.2700161
v -0.1003178 -0.3759785 -0.2681335
v -0.08827257 -0.430443 -0.3696516
v -0.03122103 -0.4191151 -0.3681261
v -0.02402925 -0.3619175 -0.3760132
v -0.04351771 -0.4106094 -0.4680639
v 0.2275921 -0.3662182 0.1444923
v 0.226696 -0.3535351 0.123344
v 0.3330583 -0.3606156 0.120999
v 0.3260106 -0.3969789 0.165871
v 0.2244436 -0.3901123 0.1391932
v 0.2216018 -0.3921963 0.11477
v 0.222994 -0.3695904 0.1049746
v 0.3317561 -0.3920177 0.07203197
v 0.3239027 -0.4477887 0.08664173
v 0.3203521 -0.4508551 0.1446373
v 0.4210967 -0.4408773 0.1134125
vn 0.5856755 -0.1150199 0.8023432
vn -0.6185233 0.03635247 -0.7849252
vn 0.04888946 -0.9986519 -0.01744551
vn 0.05058936 0.9800433 0.1922394
vn 0.8106413 -0.3078889 -0.4980615
vn -0.3047609 -0.6419031 0.7036201
vn 0.491159 0.7032833 -0.5139607
vn -0.2207135 0.972763 0.07083625
vn -0.6709641 -0.7219135 0.1692575
vn 0.01668336 -0.9870247 -0.1596998
vn 0.4655699 -0.07668685 -0.8816824
vn -0.6274795 0.08004548 -0.7745078
vn -0.8845286 -0.001238403 0.4664844
vn -0.4909121 -0.03528614 0.8704943
vn 0.5509139 -0.05255938 0.8329054
vn 0.9112676 0.2473671 -0.3292431
vn 0.5305315 0.3238434 -0.7833657
vn -0.6424327 0.117623 -0.7572616
vn -0.8712127 0.1864285 0.4541288
vn -0.5523399 0.1028083 0.8272552
vn 0.6166143 0.08153123 0.7830323
vn 0.6408972 0.6771913 -0.3614732
vn 0.5826325 -0.2211386 -0.7820723
vn -0.6104414 -0.05042444 -0.7904548
vn -0.8794713 -0.1833847 0.4392043
vn -0.4412126 -0.278547 0.8530786
vn 0.555132 -0.07481669 0.8283906
vn 0.9310408 0.05344378 -0.3609805
vn -0.5432298 0.6926581 -0.4744747
vn -0.6940405 -0.6589536 -0.2899794
vn 0.3298157 0.05386973 -0.9425071
vn 0.5368695 -0.8200694 -0.1981347
vn -0.1537432 -0.7436444 0.6506583
vn -0.8328983 0.1482544 0.5331991
vn -0.1878077 0.9651946 -0.1820102
vn 0.5912278 0.4912533 -0.6396249
vn 0.9300863 -0.3667065 -0.02158281
vn 0.2487709 -0.3625245 0.8981587
vn -0.4379321 0.5219557 0.7319685
vn -0.4329508 -0.849937 -0.3002679
vn 0.4422767 -0.5453056 0.7120626
vn 0.5970787 -0.4224961 -0.6819047
vn 0.9076496 0.4139277 0.06954209
vn 0.1487176 0.4922485 0.8576564
vn -0.6809496 -0.2516039 0.6877522
vn -0.6913825 -0.4589028 -0.558031
vn 0.1772648 -0.1249623 -0.9761975
vn 0.5892964 0.7143824 -0.377343
vn -0.1517875 0.8627821 0.4822528
vn -0.9507134 0.08199157 0.2990342
vn -0.7580149 0.6330227 -0.1571486
vn -0.02583048 0.2978752 0.9542553
vn -0.8524336 -0.5028369 0.14322
vn 0.2047523 -0.8393376 0.5035761
vn 0.8939511 0.01222108 0.4479979
vn 0.3646272 0.9291398 0.06120626
vn -0.5872123 0.490758 -0.6436912
vn -0.7484412 -0.4959396 -0.4403178
vn 0.1963882 -0.9746577 -0.1071173
vn 0.9809743 -0.1416511 -0.1327574
vn 0.4103391 0.767333 -0.4927695
vn 0.09125575 0.7952895 0.5993221
vn -0.9886251 0.1067783 0.1059193
vn 0.01739416 0.8166589 -0.5768586
vn -0.3507623 -0.2404455 -0.9050701
vn -0.5073754 -0.8616009 -0.0146353
vn -0.2614864 -0.2850028 0.9221704
vn 0.5818245 0.5847691 0.5652658
vn 0.5799032 0.6786891 -0.4506589
vn 0.2733859 -0.2795973 -0.9203725
vn 0.08385994 -0.9953451 -0.0474937
vn 0.3080755 -0.3766669 0.8736197
vt 0.1526544 -0.03756542
vt 0.1554192 -0.04225726
vt 0.1758263 -0.04915154
vt 0.1680608 -0.02764875
vt -0.1551104 -0.03973545
vt -0.1713608 -0.03270663
vt -0.1771412 -0.05818083
vt -0.1561648 -0.04527312
vt 0.03309054 -0.09231111
vt 0.004383197 -0.1024714
vt 0.01172658 -0.1225815
vt 0.03470087 -0.0974851
vt 0.01004054 -0.1116781
vt 0.006930259 -0.1197476
vt 0.03348303 -0.1324707
vt 0.03637931 -0.1249456
vt -0.009858171 0.08105532
vt -0.01266064 0.09875028
vt -0.04473719 0.08891506
vt -0.03863749 0.07185446
vt 0.1463622 -0.06789626
vt 0.1415788 -0.1015568
vt 0.1599523 -0.1079047
vt 0.1660767 -0.07645704
vt -0.169516 -0.1644882
vt -0.1487204 -0.1851353
vt -0.1268528 -0.1703739
vt -0.1432839 -0.1437347
vt -0.02101592 -0.08795377
vt 0.007845594 -0.09300757
vt 0.01095846 -0.08763296
vt -0.01769623 -0.08055315
vt -0.01755092 -0.1733137
vt -0.04952589 -0.1673124
vt -0.04687127 -0.1914694
vt -0.01590428 -0.1923032
vt -0.0194532 -0.09925577
vt -0.04764109 -0.1078567
vt -0.04537311 -0.1129977
vt -0.01330074 -0.1197495
vt -0.1822387 0.01741776
vt -0.1650925 0.006112507
vt -0.1421745 0.02610699
vt -0.1586372 0.03978023
vt -0.1862453 -0.02103189
vt -0.2058864 -0.01606295
vt -0.2159583 -0.03877952
vt -0.198045 -0.0488156
vt 0.07809694 0.141657
vt 0.08324086 0.1615336
vt 0.0513994 0.1709896
vt 0.04247203 0.1407601
vt 0.1687166 0.02025179
vt 0.1949632 0.03771809
vt 0.1751425 0.06215054
vt 0.1556175 0.04689723
vt 0.1932677 -0.04869345
vt 0.2155876 -0.0379566
vt 0.209222 -0.01922164
vt 0.1885326 -0.02512857
vt 0.03451926 0.177753
vt 0.03542226 0.1992015
vt 0.002917374 0.2028158
vt -0.002926017 0.1751215
vt -0.2163455 -0.02566472
vt -0.1972932 -0.03244197
vt -0.1823872 -0.003582053
vt -0.2093651 0.005016288
vt -0.2026278 -0.01342785
vt -0.2289322 -0.01732546
vt -0.2308401 -0.02311443
vt -0.2129326 -0.03601905
vt 0.06236829 0.1386111
vt 0.06391485 0.1606552
vt 0.03560317 0.1681834
vt 0.02981626 0.1452381
vt 0.1673829 0.0609785
vt 0.1835705 0.07808437
vt 0.1607966 0.0966159
vt 0.1443397 0.08226948
vt 0.2137112 -0.04430937
vt 0.2336999 -0.03529748
vt 0.230171 -0.02744917
vt 0.2077521 -0.02546668
vt -0.1145395 -0.1714712
vt -0.1239157 -0.1914588
vt -0.1058055 -0.2143042
vt -0.08624737 -0.1873204
vt -0.1401671 0.03391352
vt -0.1299622 0.02042675
vt -0.1048148 0.03488005
vt -0.114676 0.04963566
vt -0.1751861 -0.03529301
vt -0.1933639 -0.02579431
vt -0.2039981 -0.05403301
vt -0.1804134 -0.06087554
vt 0.09051356 0.1325308
vt 0.09958364 0.1553699
vt 0.06406499 0.1583043
vt 0.06115409 0.143206
vt 0.1773689 -0.02358229
vt 0.1915771 -0.01768538
vt 0.1854506 0.01136718
vt 0.1676762 0.006986392
vt 0.175532 -0.05114899
vt 0.1935226 -0.04783166
vt 0.1887004 -0.02428444
vt 0.1680208 -0.0295689
vt 0.0229078 0.1432056
vt 0.02480388 0.164287
vt -0.01243991 0.160223
vt -0.01049027 0.1391025
vt -0.1766878 -0.02490239
vt -0.1747549 -0.0233918
vt -0.181723 -0.01532579
vt -0.1857394 -0.01952721
vt -0.1617595 -0.1492914
vt -0.1600368 -0.1475246
vt -0.1611848 -0.1453402
vt -0.1636169 -0.145757
vt -0.1639721 -0.148199
vt -0.2093961 0.03735566
vt -0.2069955 0.03786535
vt -0.207083 0.04944549
vt -0.2125715 0.04753093
vt 0.03934462 0.01184441
vt 0.04140488 0.01051855
vt 0.05051734 0.01828698
vt 0.04569403 0.02152802
vt 0.1955004 -0.1003625
vt 0.1972117 -0.1021035
vt 0.2061063 -0.095037
vt 0.2023923 -0.09057245
vt 0.0465968 0.1672729
vt 0.04892319 0.1680486
vt 0.04443938 0.1775731
vt 0.03894642 0.1756738
vt -0.1046593 -0.08837783
vt -0.1008592 -0.08397168
vt -0.1117301 -0.07903935
vt -0.2367071 -0.02727437
vt -0.2325229 -0.02323106
vt -0.2408781 -0.01608933
vt 0.1307271 0.1109368
vt 0.1348499 0.1068309
vt 0.1409985 0.11485
vt 0.2324848 -0.02425709
vt 0.2369515 -0.02798587
vt 0.2403925 -0.01796592
vt 0.09295993 0.05952116
vt 0.09869791 0.06048599
vt 0.09196131 0.07006834
vt -0.1387275 -0.1577128
vt -0.1386002 -0.155263
vt -0.1492592 -0.1552335
vt -0.1487215 -0.1610209
vt 0.1927478 -0.0543936
vt 0.1928583 -0.05192846
vt 0.190548 -0.05106152
vt 0.1890096 -0.05299086
vt 0.1903691 -0.05505021
vt -0.1306724 0.06928289
vt -0.1304464 0.07172656
vt -0.1415305 0.07508081
vt -0.1413316 0.06927137
vt 0.2372457 -0.02027381
vt 0.2391071 -0.02186689
vt 0.2491891 -0.01540637
vt 0.24485 -0.01154101
vt 0.2088806 -0.05050127
vt 0.2089964 -0.05293981
vt 0.2203372 -0.05359811
vt 0.2205431 -0.04779438
vt 0.2282219 0.04468316
vt 0.2268539 0.04264785
vt 0.2362222 0.03784635
vt 0.2394108 0.04270566
vt -0.2392987 -0.07005976
vt -0.2371933 -0.06463559
vt -0.2490881 -0.06362771
vt -0.2323947 -0.01233678
vt -0.2343285 -0.006848975
vt -0.2443007 -0.01147155
vt -0.08393506 -0.2266928
vt -0.08892798 -0.2296804
vt -0.08266528 -0.2376107
vt 0.1123555 -0.0593387
vt 0.1117258 -0.06512304
vt 0.1219739 -0.0624365
vt -0.007132445 0.1934431
vt -0.003838727 0.1886466
vt 0.002010889 0.1987948
vt -0.05358062 -0.001153043
vt -0.05316312 -0.003570401
vt -0.04276136 -0.001242776
vt -0.0445652 0.004282557
vt 0.1558315 -0.04345293
vt 0.153671 -0.04464517
vt 0.1541373 -0.04706834
vt 0.1565859 -0.04737372
vt 0.157633 -0.04513928
vt -0.1499226 -0.07865897
vt -0.1474823 -0.07839887
vt -0.1463783 -0.06687114
vt -0.1520346 -0.06821109
vt 0.07906204 -0.102399
vt 0.07942244 -0.09997565
vt 0.068592 -0.09486809
vt 0.06762336 -0.1005979
vt 0.1443789 0.004130159
vt 0.1460265 0.005931628
vt 0.1384971 0.01443796
vt 0.1342363 0.01049192
vt 0.05779695 -0.145531
vt 0.05918348 -0.1475537
vt 0.06710429 -0.1406197
vt 0.06376535 -0.1358624
vt -0.1152201 -0.03922681
vt -0.1128887 -0.04455776
vt -0.1037431 -0.03688579
vt -0.1617354 -0.05451697
vt -0.1559169 -0.0545394
vt -0.1569202 -0.04359377
vt -0.03222918 -0.0879145
vt -0.03012368 -0.08249028
vt -0.03993655 -0.08007804
vt 0.03147013 0.0951535
vt 0.03269323 0.100842
vt 0.02222266 0.09922726
vt -0.07136115 -0.1456497
vt -0.07185511 -0.1514472
vt -0.06089741 -0.1473081
vt 0.0696873 -0.07434056
vt 0.07182495 -0.07313709
vt 0.06614606 -0.06411686
vt 0.06154473 -0.06766807
vt -0.09274025 0.08061303
vt -0.09038536 0.08135035
vt -0.09035889 0.08381782
vt -0.09269741 0.0846055
vt -0.09416918 0.08262484
vt -0.1231304 -0.08899756
vt -0.1207026 -0.08935539
vt -0.1167535 -0.07846905
vt -0.1225652 -0.07835333
vt -0.1456057 -0.04862618
vt -0.1436149 -0.05005428
vt -0.1341222 -0.04275537
vt -0.1387759 -0.03927517
vt -0.01858844 -0.1489563
vt -0.0164352 -0.1501067
vt -0.01005736 -0.140706
vt -0.0149353 -0.1375546
vt 0.1542877 -0.01646079
vt 0.1564144 -0.01523981
vt 0.1501335 -0.006791759
vt 0.1451253 -0.009741089
vt 0.1152024 -0.08763163
vt 0.119135 -0.08334336
vt 0.1084196 -0.07808194
vt -0.1161384 -0.1073694
vt -0.1103208 -0.1072638
vt -0.1115648 -0.09634287
vt -0.1091978 0.01151882
vt -0.1047885 0.007722365
vt -0.09923694 0.01616579
vt 0.0275944 -0.08217782
vt 0.03292363 -0.08451327
vt 0.03343435 -0.07393123
vt 0.1476302 -0.03992596
vt 0.1530328 -0.03776561
vt 0.1444164 -0.02983081
o group181920446
g mesh181920446
usemtl mat18
f 4/4/1 3/3/1 2/2/1 1/1/1
f 8/8/2 7/7/2 6/6/2 5/5/2
f 2/12/3 10/11/3 9/10/3 1/9/3
f 14/16/4 13/15/4 12/14/4 11/13/4
f 9/20/5 15/19/5 4/18/5 1/17/5
f 3/24/6 16/23/6 10/22/6 2/21/6
f 19/28/7 18/27/7 17/26/7 14/25/7
f 14/32/8 17/31/8 20/30/8 13/29/8
f 16/36/9 7/35/9 8/34/9 10/33/9
f 10/40/10 8/39/10 5/38/10 9/37/10
f 22/44/11 15/43/11 6/42/11 21/41/11
f 24/48/12 23/47/12 18/46/12 21/45/12
f 26/52/13 25/51/13 23/50/13 24/49/13
f 28/56/14 27/55/14 25/54/14 26/53/14
f 30/60/15 29/59/15 27/58/15 28/57/15
f 22/64/16 19/63/16 29/62/16 30/61/16
f 19/68/17 22/67/17 21/66/17 18/65/17
f 23/72/18 20/71/18 17/70/18 18/69/18
f 25/76/19 13/75/19 20/74/19 23/73/19
f 27/80/20 12/79/20 13/78/20 25/77/20
f 29/84/21 11/83/21 12/82/21 27/81/21
f 19/88/22 14/87/22 11/86/22 29/85/22
f 15/92/23 9/91/23 5/90/23 6/89/23
f 7/96/24 24/95/24 21/94/24 6/93/24
f 16/100/25 26/99/25 24/98/25 7/97/25
f 3/104/26 28/103/26 26/102/26 16/101/26
f 4/108/27 30/107/27 28/106/27 3/105/27
f 15/112/28 22/111/28 30/110/28 4/109/28
f 34/116/29 33/115/29 32/114/29 31/113/29
f 31/121/30 32/120/30 37/119/30 36/118/30 35/117/30
f 33/125/31 38/124/31 37/123/31 32/122/31
f 38/129/32 39/128/32 36/127/32 37/126/32
f 39/133/33 40/132/33 35/131/33 36/130/33
f 40/137/34 34/136/34 31/135/34 35/134/34
f 41/140/35 33/139/35 34/138/35
f 41/143/36 38/142/36 33/141/36
f 41/146/37 39/145/37 38/144/37
f 41/149/38 40/148/38 39/147/38
f 41/152/39 34/151/39 40/150/39
f 45/156/40 44/155/40 43/154/40 42/153/40
f 42/161/41 43/160/41 48/159/41 47/158/41 46/157/41
f 44/165/42 49/164/42 48/163/42 43/162/42
f 49/169/43 50/168/43 47/167/43 48/166/43
f 50/173/44 51/172/44 46/171/44 47/170/44
f 51/177/45 45/176/45 42/175/45 46/174/45
f 52/180/46 44/179/46 45/178/46
f 52/183/47 49/182/47 44/181/47
f 52/186/48 50/185/48 49/184/48
f 52/189/49 51/188/49 50/187/49
f 52/192/50 45/191/50 51/190/50
f 56/196/51 55/195/51 54/194/51 53/193/51
f 53/201/52 54/200/52 59/199/52 58/198/52 57/197/52
f 55/205/53 60/204/53 59/203/53 54/202/53
f 60/209/54 61/208/54 58/207/54 59/206/54
f 61/213/55 62/212/55 57/211/55 58/210/55
f 62/217/56 56/216/56 53/215/56 57/214/56
f 63/220/57 55/219/57 56/218/57
f 63/223/58 60/222/58 55/221/58
f 63/226/59 61/225/59 60/224/59
f 63/229/60 62/228/60 61/227/60
f 63/232/61 56/231/61 62/230/61
f 67/236/62 66/235/62 65/234/62 64/233/62
f 64/241/63 65/240/63 70/239/63 69/238/63 68/237/63
f 66/245/64 71/244/64 70/243/64 65/242/64
f 71/249/65 72/248/65 69/247/65 70/246/65
f 72/253/66 73/252/66 68/251/66 69/250/66
f 73/257/67 67/256/67 64/255/67 68/254/67
f 74/260/68 66/259/68 67/258/68
f 74/263/69 71/262/69 66/261/69
f 74/266/70 72/265/70 71/264/70
f 74/269/71 73/268/71 72/267/71
f 74/272/72 67/271/72 73/270/72
